<?xml version="1.0" encoding="iso-8859-1"?>
<!-- Generator: Adobe Illustrator 19.0.0, SVG Export Plug-In . SVG Version: 6.00 Build 0)  -->
<svg version="1.1" id="Layer_1" xmlns="http://www.w3.org/2000/svg" xmlns:xlink="http://www.w3.org/1999/xlink" x="0px" y="0px"
	 viewBox="0 0 12.032 12.032" style="enable-background:new 0 0 12.032 12.032;" xml:space="preserve">
<g id="XMLID_1_">
	<path id="XMLID_3_" d="M1.907,5.625C2.075,5.792,2.159,5.994,2.159,6.23S2.075,6.669,1.907,6.836S1.538,7.087,1.302,7.087
		S0.863,7.004,0.696,6.836S0.445,6.467,0.445,6.23s0.083-0.438,0.251-0.606s0.369-0.251,0.606-0.251S1.74,5.457,1.907,5.625z
		 M3.438,2.139c0.21,0.21,0.315,0.462,0.315,0.757c0,0.295-0.105,0.547-0.315,0.757S2.976,3.967,2.681,3.967
		c-0.294,0-0.547-0.104-0.756-0.314C1.715,3.442,1.61,3.19,1.61,2.896c0-0.294,0.105-0.547,0.315-0.757
		c0.209-0.209,0.462-0.314,0.756-0.314C2.976,1.824,3.228,1.929,3.438,2.139z M3.287,8.959c0.167,0.167,0.251,0.37,0.251,0.606
		c0,0.236-0.084,0.438-0.251,0.606c-0.167,0.167-0.369,0.251-0.606,0.251c-0.232,0-0.433-0.085-0.603-0.254
		c-0.17-0.169-0.254-0.371-0.254-0.603c0-0.237,0.083-0.439,0.251-0.606c0.167-0.167,0.37-0.251,0.606-0.251
		C2.918,8.708,3.12,8.792,3.287,8.959z M6.928,0.605c0.25,0.25,0.375,0.554,0.375,0.911c0,0.357-0.125,0.661-0.375,0.911
		c-0.252,0.25-0.555,0.375-0.912,0.375s-0.66-0.125-0.91-0.375S4.73,1.874,4.73,1.516c0-0.357,0.125-0.661,0.375-0.911
		S5.658,0.23,6.015,0.23S6.676,0.355,6.928,0.605z M6.623,10.339c0.166,0.167,0.25,0.369,0.25,0.606c0,0.236-0.084,0.438-0.25,0.606
		c-0.168,0.167-0.371,0.251-0.607,0.251s-0.438-0.083-0.605-0.251c-0.167-0.167-0.251-0.37-0.251-0.606
		c0-0.237,0.083-0.439,0.251-0.606c0.168-0.167,0.369-0.251,0.605-0.251S6.455,10.171,6.623,10.339z M10.851,2.896
		c0,0.415-0.148,0.769-0.443,1.062C10.115,4.25,9.761,4.396,9.351,4.396c-0.416,0-0.77-0.146-1.062-0.438
		C7.998,3.665,7.851,3.311,7.851,2.896c0-0.411,0.146-0.763,0.438-1.058c0.293-0.294,0.646-0.442,1.062-0.442
		c0.41,0,0.764,0.147,1.057,0.442C10.703,2.132,10.851,2.485,10.851,2.896z M10.209,9.565c0,0.232-0.086,0.433-0.256,0.603
		s-0.371,0.254-0.602,0.254c-0.238,0-0.439-0.083-0.607-0.251c-0.166-0.167-0.25-0.37-0.25-0.606c0-0.237,0.084-0.439,0.25-0.606
		c0.168-0.167,0.369-0.251,0.607-0.251c0.236,0,0.438,0.084,0.605,0.251C10.125,9.126,10.209,9.329,10.209,9.565z M11.336,5.625
		c0.168,0.167,0.252,0.369,0.252,0.606s-0.084,0.438-0.252,0.606c-0.166,0.167-0.369,0.251-0.605,0.251s-0.439-0.083-0.605-0.251
		C9.957,6.669,9.873,6.467,9.873,6.23s0.084-0.438,0.252-0.606c0.166-0.167,0.369-0.251,0.605-0.251S11.17,5.457,11.336,5.625z"/>
</g>
</svg>
