<?xml version="1.0" encoding="iso-8859-1"?>
<!-- Generator: Adobe Illustrator 19.0.0, SVG Export Plug-In . SVG Version: 6.00 Build 0)  -->
<svg version="1.1" id="Layer_1" xmlns="http://www.w3.org/2000/svg" xmlns:xlink="http://www.w3.org/1999/xlink" x="0px" y="0px"
	 viewBox="0 0 50 50" style="enable-background:new 0 0 50 50;" xml:space="preserve">
<g id="XMLID_1_">
	<path id="XMLID_3_" style="fill:#FFFFFF;" d="M40.939,16.743c0.526,0.751,0.645,1.6,0.355,2.548l-5.432,17.897
		c-0.25,0.842-0.754,1.55-1.511,2.123c-0.758,0.573-1.564,0.86-2.42,0.86H13.698c-1.014,0-1.992-0.353-2.934-1.057
		c-0.942-0.705-1.597-1.57-1.965-2.598c-0.316-0.882-0.329-1.719-0.039-2.509c0-0.052,0.02-0.23,0.059-0.533
		c0.04-0.302,0.066-0.546,0.079-0.731c0.013-0.105-0.007-0.247-0.059-0.425c-0.053-0.177-0.073-0.306-0.059-0.385
		c0.026-0.144,0.079-0.283,0.158-0.415c0.079-0.132,0.188-0.286,0.326-0.464s0.247-0.332,0.326-0.464
		c0.303-0.5,0.599-1.103,0.889-1.807c0.29-0.704,0.487-1.307,0.593-1.808c0.039-0.132,0.043-0.329,0.01-0.593
		c-0.033-0.263-0.036-0.448-0.01-0.553c0.039-0.145,0.151-0.33,0.336-0.553c0.184-0.224,0.296-0.375,0.336-0.455
		c0.276-0.473,0.553-1.079,0.83-1.817c0.276-0.737,0.441-1.33,0.494-1.778c0.013-0.119-0.003-0.329-0.049-0.632
		c-0.046-0.303-0.043-0.487,0.01-0.553c0.052-0.171,0.197-0.372,0.434-0.602c0.237-0.23,0.382-0.379,0.435-0.445
		c0.25-0.342,0.53-0.899,0.839-1.669c0.31-0.77,0.49-1.406,0.543-1.906c0.013-0.105-0.007-0.273-0.059-0.504
		c-0.053-0.23-0.066-0.405-0.039-0.523c0.026-0.105,0.085-0.224,0.178-0.356c0.092-0.131,0.211-0.283,0.356-0.454
		c0.145-0.171,0.257-0.31,0.336-0.415c0.105-0.158,0.214-0.359,0.326-0.602c0.112-0.244,0.211-0.474,0.296-0.691
		c0.085-0.217,0.191-0.454,0.316-0.711c0.125-0.257,0.253-0.467,0.385-0.632c0.131-0.164,0.306-0.319,0.523-0.464
		c0.217-0.145,0.454-0.22,0.711-0.227c0.257-0.006,0.569,0.03,0.938,0.109l-0.02,0.059c0.5-0.119,0.836-0.178,1.007-0.178h15.033
		c0.974,0,1.725,0.369,2.251,1.106c0.527,0.737,0.646,1.594,0.356,2.568L32.761,31.4c-0.474,1.567-0.945,2.578-1.412,3.033
		c-0.468,0.454-1.314,0.681-2.538,0.681H11.643c-0.355,0-0.606,0.099-0.75,0.297c-0.145,0.211-0.152,0.494-0.02,0.849
		c0.316,0.922,1.264,1.383,2.845,1.383H31.95c0.382,0,0.751-0.102,1.107-0.306c0.355-0.204,0.586-0.477,0.691-0.82l5.926-19.497
		c0.092-0.29,0.125-0.665,0.099-1.126C40.273,16.091,40.662,16.374,40.939,16.743z M18.281,21.839
		c-0.053,0.171-0.039,0.319,0.04,0.444c0.079,0.125,0.211,0.188,0.395,0.188h12.01c0.171,0,0.339-0.062,0.504-0.188
		c0.164-0.125,0.273-0.273,0.326-0.444l0.415-1.264c0.052-0.171,0.039-0.319-0.039-0.444c-0.079-0.125-0.211-0.188-0.395-0.188
		h-12.01c-0.171,0-0.339,0.063-0.504,0.188c-0.165,0.125-0.273,0.273-0.326,0.444L18.281,21.839z M19.92,16.782
		c-0.053,0.172-0.04,0.32,0.039,0.445s0.211,0.188,0.395,0.188h12.011c0.171,0,0.339-0.063,0.504-0.188
		c0.164-0.125,0.273-0.273,0.326-0.445l0.415-1.264c0.053-0.171,0.039-0.319-0.039-0.444c-0.079-0.125-0.211-0.188-0.395-0.188
		h-12.01c-0.171,0-0.339,0.063-0.504,0.188c-0.165,0.125-0.273,0.273-0.326,0.444L19.92,16.782z"/>
</g>
</svg>
